/* XPM */
static char *kdesnake[] = {
/* columns rows colors chars-per-pixel */
"32 32 217 2 ",
"   c #3B4F00",
".  c #3D4E0C",
"X  c #3F5409",
"o  c #405307",
"O  c #4C5C02",
"+  c #42550C",
"@  c #475B0A",
"#  c #435B10",
"$  c #4F6700",
"%  c #4C630D",
"&  c #5C6F00",
"*  c #577001",
"=  c #5B7600",
"-  c #547A00",
";  c #5D7809",
":  c #4B6515",
">  c #4C661B",
",  c #536D13",
"<  c #516C1C",
"1  c #557114",
"2  c #5A7514",
"3  c #5E7914",
"4  c #54701D",
"5  c #5A731A",
"6  c #5D791A",
"7  c #617200",
"8  c #6C7E03",
"9  c #657F0C",
"0  c #617B12",
"q  c #617D1D",
"w  c #496322",
"e  c #9D7805",
"r  c #F16E28",
"t  c #648101",
"y  c #6B8402",
"u  c #6B8804",
"i  c #64800C",
"p  c #6B840C",
"a  c #6E8A0B",
"s  c #728501",
"d  c #738D01",
"f  c #788A07",
"g  c #718C0C",
"h  c #749100",
"j  c #7A9302",
"k  c #7D9A01",
"l  c #79970A",
"z  c #7D990B",
"x  c #648112",
"c  c #6B8314",
"v  c #66851F",
"b  c #718212",
"n  c #7A9412",
"m  c #7D9910",
"M  c #77901F",
"N  c #77981D",
"B  c #698D2D",
"V  c #6C912B",
"C  c #759622",
"Z  c #7A9221",
"A  c #779921",
"S  c #799C24",
"D  c #729528",
"F  c #668B31",
"G  c #809606",
"H  c #839C02",
"J  c #899E03",
"K  c #84950D",
"L  c #839E0C",
"P  c #819711",
"I  c #829B15",
"U  c #849C1C",
"Y  c #85A201",
"T  c #89A501",
"R  c #8EAA01",
"E  c #86A50B",
"W  c #8BA008",
"Q  c #8FAD0A",
"!  c #92AD00",
"~  c #92AC0D",
"^  c #96B201",
"/  c #9CB501",
"(  c #9DBA00",
")  c #99B40B",
"_  c #84A215",
"`  c #8CA913",
"'  c #83A31A",
"]  c #8DA719",
"[  c #89A81C",
"{  c #92A712",
"}  c #94AB11",
"|  c #9AAA12",
" . c #94AC1C",
".. c #94B317",
"X. c #9CB911",
"o. c #A1BC01",
"O. c #A5BD16",
"+. c #A2B91E",
"@. c #849D2A",
"#. c #849B32",
"$. c #8D9B34",
"%. c #84A521",
"&. c #88A920",
"*. c #93A429",
"=. c #9DB13E",
"-. c #A4B735",
";. c #A1B53A",
":. c #D5941F",
">. c #E58B1A",
",. c #C9BE07",
"<. c #F3AA19",
"1. c #F49220",
"2. c #FF8638",
"3. c #A6C101",
"4. c #AAC501",
"5. c #AFCA01",
"6. c #A4C20E",
"7. c #A8C409",
"8. c #ACCA0D",
"9. c #B1CC01",
"0. c #B4CC0C",
"q. c #B6D101",
"w. c #BBD502",
"e. c #BFDC00",
"r. c #A7C312",
"t. c #AECB15",
"y. c #A3C21A",
"u. c #ABC91C",
"i. c #B2CC14",
"p. c #B5CC18",
"a. c #BED314",
"s. c #BED31A",
"d. c #AEC128",
"f. c #BCD12A",
"g. c #B0C134",
"h. c #BDCE3F",
"j. c #C0D700",
"k. c #C2DC00",
"l. c #C1DF0E",
"z. c #C7DB15",
"x. c #C6DE18",
"c. c #F2C41E",
"v. c #EFD71E",
"b. c #CAE403",
"n. c #CFEA01",
"m. c #C4E00C",
"M. c #CBE60A",
"N. c #D2EC01",
"B. c #D0EC09",
"V. c #DAF401",
"C. c #DFF901",
"Z. c #CCE51A",
"A. c #DDE415",
"S. c #D0E21A",
"D. c #DCEE1B",
"F. c #DEF516",
"G. c #DEF41A",
"H. c #E4FE01",
"J. c #E7FF13",
"K. c #E8FF1C",
"L. c #C0D327",
"P. c #C7DE22",
"I. c #CCDF26",
"U. c #C6DA2C",
"Y. c #CBDC2F",
"T. c #C5D934",
"R. c #D7E724",
"E. c #D9E723",
"W. c #D4E924",
"Q. c #DCEB25",
"!. c #D5E92A",
"~. c #DEF226",
"^. c #DFF22C",
"/. c #CAE233",
"(. c #D8EC36",
"). c #D4E739",
"_. c #E0EE2A",
"`. c #E3F424",
"'. c #E7FD21",
"]. c #E9FF26",
"[. c #ECF82E",
"{. c #EAFD32",
"}. c #E3F23D",
"|. c #E6F93E",
" X c #EBFF3C",
".X c #9AAD4D",
"XX c #9EB443",
"oX c #AABD53",
"OX c #AFBF5E",
"+X c #B2BF56",
"@X c #AEBE68",
"#X c #B0C067",
"$X c #C2D24B",
"%X c #D1DF43",
"&X c #DBEB40",
"*X c #D7E94E",
"=X c #ECFF44",
"-X c #E3F54E",
";X c #E4F650",
":X c #EEFF5A",
">X c #DAE97F",
",X c #EFFF65",
"<X c #F0FF65",
"1X c #F2FF76",
"2X c #C7D384",
"3X c #CDD884",
"4X c #D3E08E",
"5X c #EBF68A",
"6X c #F3FF82",
"7X c #E6EE9F",
"8X c #EBF790",
"9X c #F1F99A",
"0X c #F7FFA4",
"qX c #F7FFAD",
"wX c #F9FFB3",
"eX c #FDFFE8",
"rX c None",
/* pixels */
"rXrXrXrXrXrXrXrXrXrXrXrXrXrXrXrXrXrXrXrXrXrXrXrXrXrXrXrXrXrXrXrX",
"rXrXrXrXrXrXrXrXrXrXrXrXrXrXrXrX+X$Xg.-.*.rXrXrXrXrXrXrXrXrXrXrX",
"rXrXrXrXrXrXrXrXrXrXrXrXrXrXrX9.K.J.K.=X=X{.j.rXrXrXrXrXrXrXrXrX",
"rXrXrXrXrXrXrXrXrXrXrXrXrXrXJ H.H.H.H.H.G #.A.:.2.rXrXrXrXrXrXrX",
"rXrXrXrXrXrXrXrXrXrXrX$.7X5X].J.J.H.H.H.H.H.c.<.1.r rXrXrXrXrXrX",
"rXrXrXrXrXrXrXrXrXrXrX9XwX0X6X<X>Xi.H.H.H.H.v.<.>.rXrXrXrXrXrXrX",
"rXrXrXrXrXrXrXrXrXrXrX=X1X1X<X XF.H.H.H.V.H.H.,.e rXrXrXrXrXrXrX",
"rXrXrXrXrXrXrXrXrXrXrX/ H.H.H.H.H.H.V.o.V.k.n.3.8 rXrXrXrXrXrXrX",
"rXrXrXrXrXrXrXrXrXrXrXrXE / ^ ( 5.5.9.V.Y o.k.o.s rXrXrXrXrXrXrX",
"rXrXrXrXrXrXrXrXrXrXrXrXd T ( ( ( ( T - u o.9.9.d rXrXrXrXrXrXrX",
"rXrXrXrXrXrXrXrXrXrX{ ^.G.l.l.b.e.s.4Xu k ! 3.q.rXrXrXrXrXrXrXrX",
"rXrXrXrXrXrXrXrXrXd t.&.' _ _ %.y.H.wX8XH R o.o.rXrXrXrXrXrXrXrX",
"rXrXrXrXrXrXrXrX= T n u j j h t ' t.J.eXp.^ 3.s rXrXrXrXrXrXrXrX",
"rXrXrXrXrXrXK s j Y T R H R Y j u &.H.qX*Xo.T rXrXrXrXrXrXrXrXrX",
"rXrXrXrX| Q.E.} Y ! ( d t y R T j ' B.6X;X/ O rXrXrXrXrXrXrXrXrX",
"rXrXrX| `.[.R.] E ( 9.k t t g ^ Y [ C.:X-Xk p.z.W rXrXrXrXrXrXrX",
"rXrXrXD.[._.O.v A o.w.k.y = 0 ( R ..H.=X/.z R o.z.S.8 rXrXrXrXrX",
"rXrXb `.}.I.P % V S 0.n.G.f 5 ! ! r.H.{.u.F V Q 7.j.D.J rXrXrXrX",
"rXrXP ~.&XU.n rX1 V S 8.M.!.+.m Q M.C.H.p 6 B F ) q.M.`.rXrXrXrX",
"rXrXb Z.).T.} rXrXx N D [ 7.i.z.X.n.V.C.  rXrXq V w.b.G.z.rXrXrX",
"rXrXrX .P.f.O.j c ;.$X%XL.S A ` q.b.N.3.d.U $ rXq 6.M.V.'.rXrXrX",
"rXrXrXc I 6.) a @.m H } Y.Q.' o.q.e.b.k ~ h.;.9 rX` (.V.J.rXrXrX",
"rXrXrXrX3 i u 1 p u t 0 l / / 3.9.w.( ! R Y  .;.9 p.&XC.H.rXrXrX",
"rXrXrXrXrX9 ; , p Z + . q T ^ ( 4./ rXj ( ^ T _ @.( N.V.C.rXrXrX",
"rXrXrXrXrXrX+ 1 Z @X#XOXoX .R ^ / rXrXrX& 3.^ H U L N.H.! rXrXrX",
"rXrXrXrXrXrXrX> 0 .X2X3XXXG Y ! 0.J rXrXrX( ( R z g N.b.rXrXrXrX",
"rXrXrXrXrXrXrXrX> 3 x p a i 3 4 8.R.o.7 s q.o.R j d o.rXrXrXrXrX",
"rXrXrXrXrXrXrXrXrX# > > : @ o > 6 0.!.W.x.9.( T h * rXrXrXrXrXrX",
"rXrXrXrXrXrXrXrXrXrXrXrXrXrXrX% w < L 4.4.o.! j 2 X rXrXrXrXrXrX",
"rXrXrXrXrXrXrXrXrXrXrXrXrXrXrXrX@ 5 w < 3 6 2 < X rXrXrXrXrXrXrX",
"rXrXrXrXrXrXrXrXrXrXrXrXrXrXrXrXrXrX@ , , , % rXrXrXrXrXrXrXrXrX",
"rXrXrXrXrXrXrXrXrXrXrXrXrXrXrXrXrXrXrXrXrXrXrXrXrXrXrXrXrXrXrXrX"
};
