/* XPM */
static char *ktron[] = {
/* columns rows colors chars-per-pixel */
"32 32 185 2 ",
"   c #372E11",
".  c #2A2C2A",
"X  c #31332E",
"o  c #2F3537",
"O  c #313739",
"+  c #35393A",
"@  c #393D3E",
"#  c #44443F",
"$  c #5C5234",
"%  c #5F573E",
"&  c #7E562D",
"*  c #735535",
"=  c #765F31",
"-  c #765839",
";  c #7E5C38",
":  c #3B3F40",
">  c #424545",
",  c #444847",
"<  c #474B49",
"1  c #4C4E4A",
"2  c #4F514D",
"3  c #595445",
"4  c #525451",
"5  c #5B5D59",
"6  c #615540",
"7  c #6B5F44",
"8  c #775E40",
"9  c #5E615D",
"0  c #73634A",
"q  c #756450",
"w  c #796C5B",
"e  c #7E735D",
"r  c #666963",
"t  c #696B67",
"y  c #6B6C69",
"u  c #766F60",
"i  c #757873",
"p  c #7C7E79",
"a  c #8D5E2C",
"s  c #905F2D",
"d  c #9B6E2B",
"f  c #896336",
"g  c #A26528",
"h  c #B06A23",
"j  c #AE7130",
"k  c #B87939",
"l  c #C25F00",
"z  c #C36305",
"x  c #D26700",
"c  c #D06B07",
"v  c #C56E16",
"b  c #D3781E",
"n  c #F17800",
"m  c #FD7E00",
"M  c #CA7C2E",
"N  c #D07B28",
"B  c #836645",
"V  c #8B6A46",
"C  c #846A4C",
"Z  c #8F6D48",
"A  c #926B40",
"S  c #95744A",
"D  c #9D784D",
"F  c #9F7F5B",
"G  c #B37D45",
"H  c #AA7F50",
"J  c #A07E59",
"K  c #827767",
"L  c #907E65",
"P  c #877E70",
"I  c #807F78",
"U  c #D65858",
"Y  c #7E817C",
"T  c #FF8000",
"R  c #EF8317",
"E  c #CF8235",
"W  c #DB8B3A",
"Q  c #FF952E",
"!  c #E18F3F",
"~  c #FF9832",
"^  c #FD9A39",
"/  c #AE8557",
"(  c #AD865C",
")  c #B88854",
"_  c #88886A",
"`  c #8F8576",
"'  c #9E8B74",
"]  c #B6966F",
"[  c #A28F74",
"{  c #B19877",
"}  c #C38443",
"|  c #C68A4C",
" . c #D58F46",
".. c #CC965D",
"X. c #E69543",
"o. c #EA9A4A",
"O. c #F29D4D",
"+. c #F7A14E",
"@. c #FFA54C",
"#. c #FFAC5A",
"$. c #CC9A64",
"%. c #E48A7D",
"&. c #DBA66D",
"*. c #C7A47C",
"=. c #F6AE66",
"-. c #FFB66F",
";. c #EDB67C",
":. c #838781",
">. c #898E8A",
",. c #9F9B8F",
"<. c #969992",
"1. c #9D9E96",
"2. c #A89E8D",
"3. c #B19B80",
"4. c #A0A59F",
"5. c #B4AC9C",
"6. c #A1A7A1",
"7. c #A4A9A2",
"8. c #AAABA2",
"9. c #ACAEA9",
"0. c #AFB2AD",
"q. c #B4B7AF",
"w. c #B9BBB3",
"e. c #E69685",
"r. c #C6A781",
"t. c #CFAC87",
"y. c #CDB08D",
"u. c #DEB88B",
"i. c #E1B788",
"p. c #ECBE8E",
"a. c #EBBCB4",
"s. c #BDC0B9",
"d. c #FFC489",
"f. c #ECC296",
"g. c #F2C697",
"h. c #FCC996",
"j. c #F1CA9D",
"k. c #FFCE9E",
"l. c #C4C1B4",
"z. c #C4C6BE",
"x. c #E4CFB4",
"c. c #EACFB0",
"v. c #E2D0B7",
"b. c #EADCBF",
"n. c #FBD9B6",
"m. c #F9DBBD",
"M. c #E9E2B5",
"N. c #EBE6BC",
"B. c #C3C7C2",
"V. c #C4C9C0",
"C. c #C9CCC5",
"Z. c #CCCFC8",
"A. c #CED1CB",
"S. c #D9D2C3",
"D. c #D1D5CD",
"F. c #D3D7D1",
"G. c #D6DAD3",
"H. c #D9DCD6",
"J. c #DBDED8",
"K. c #E9D2CB",
"L. c #FADFC3",
"P. c #DEE1DB",
"I. c #E7E4C8",
"U. c #EBE7CC",
"Y. c #F1EAC4",
"T. c #FDE6CF",
"R. c #E6E3DA",
"E. c #F7E7D5",
"W. c #F0EED7",
"Q. c #E3E6E1",
"!. c #E7E9E5",
"~. c #E9EAE6",
"^. c #ECEEEA",
"/. c #F1EEE7",
"(. c #EFF0ED",
"). c #F0F0E7",
"_. c #FDF2E6",
"`. c #F1F2EE",
"'. c #FBF3E9",
"]. c #F3F5F2",
"[. c #FAF3F2",
"{. c #F7F8F7",
"}. c #FDF9F4",
"|. c #FAFBFA",
" X c None",
/* pixels */
" X X X X X X X X X X X X X X X X X X X X X X X X X X X X X X X X",
" X X X X X X X X X X X X X X X X X X X X X X X X X X X X X X X X",
" X X X X X X X X X X X X X X X X X X X X X X X X X X X X X X X X",
" X X X X X X X X X X X X X X X X X X X X X X X X X X X X X X X X",
" X X X X X X X X X X X X X X X X X X X X X X X X X X X X X X X X",
" X X X X X X X X X X X X X X X X X X X X X X X X X X X X X X X X",
" X X X X X X X X X X X X X X X X X X X X X X X X X X X X X X X X",
" X X X X X X X X X X X X X X X X X X X X X X X X X X X X X X X X",
" X X X X X X X X X X X X X X X X X X X X X X X X X X X X X X X X",
" X X X X X X X X X X X X X X X X X X X Xd.k.d.-. X X X X X X X X",
" X X X X X X X X X X X X X X X X X X X Xd.#.Q ^ @.~  X X X X X X",
" X X X X X X X X X X X X X X X XM.I.I.j.g.f.p.;.o.R m T  X X X X",
" X X X X X X X X X X X XY.).].].(.(.^.^./.L.h.c.G.u.X.b m  X X X",
" X X X X X X X X X XW.|.|.{.].].].(.(.].^.R.=.O.t.B.y.N v n  X X",
" X X X X X X X X X{.|.|.|.{.].].(.^.].^.Q.J.i.X.| w.w.E h l  X X",
" X X X X X X XN.].{.{.{.].].(.^.~.].!.P.G.D.&.W ) w.5.} g z x  X",
" X X X X X XI.].].].`.(.(.(.].(.(.!.P.F.Z.z. .M { 9.{ G & r c  X",
" X Xe.a.'.E.|.}.|.|.{.{.].].!.Q.Q.J.D.Z.z.$.M ( 9.2./ a O Y  X X",
" X%.U [.'.'.T.'.].].`.(.^.!.Q.Q.J.D.C.z.r.M / 8.,.J a > + p  X X",
" XK.].n.m.L.m.(.(.(.!.Q.Q.R.J.H.A.C.l...k [ 1.' A * 1 + , `  X X",
" XF.S.^ x.+.v.J.G.G.F.D.A.D.Z.B.s.] j F <.` A ; 1 < : O :.9  X X",
" XB.*.E 9.v 9.0.0.9.7.6.6.6.[ D S L ` C V 8 > O o o : Y i  X X X",
" X_ f B e Z >.>.Y w q q 0 - 8 u e A d  X X1 5 9 y p <.y  X X X X",
" X X XX $ = % 3 % 7 0 $    X X X X X X X X X X4 y 2 .  X X X X X",
" X X X X X X X X X X X X X X X X X X X X X X X X X X X X X X X X",
" X X X X X X X X X X X X X X X X X X X X X X X X X X X X X X X X",
" X X X X X X X X X X X X X X X X X X X X X X X X X X X X X X X X",
" X X X X X X X X X X X X X X X X X X X X X X X X X X X X X X X X",
" X X X X X X X X X X X X X X X X X X X X X X X X X X X X X X X X",
" X X X X X X X X X X X X X X X X X X X X X X X X X X X X X X X X",
" X X X X X X X X X X X X X X X X X X X X X X X X X X X X X X X X",
" X X X X X X X X X X X X X X X X X X X X X X X X X X X X X X X X"
};
